{
    "accessors" : [
        {
            "bufferView" : 0, 
            "componentType" : 5121, 
            "count" : 72, 
            "max" : [
                47
            ], 
            "min" : [
                0
            ], 
            "type" : "SCALAR"
        }, 
        {
            "bufferView" : 1, 
            "componentType" : 5126, 
            "count" : 48, 
            "max" : [
                1.895074486732483, 
                3.4516024589538574, 
                1.914127230644226
            ], 
            "min" : [
                -1.8950740098953247, 
                -5.245625019073486, 
                -1.8950738906860352
            ], 
            "type" : "VEC3"
        }, 
        {
            "bufferView" : 2, 
            "componentType" : 5126, 
            "count" : 48, 
            "max" : [
                0.8604428768157959, 
                1.0, 
                1.0
            ], 
            "min" : [
                -1.0, 
                -1.0, 
                -0.8604429364204407
            ], 
            "type" : "VEC3"
        }
    ], 
    "asset" : {
        "generator" : "Soft8Soft Verge3D for Blender add-on", 
        "version" : "2.0"
    }, 
    "bufferViews" : [
        {
            "buffer" : 0, 
            "byteLength" : 72, 
            "byteOffset" : 0, 
            "target" : 34963
        }, 
        {
            "buffer" : 0, 
            "byteLength" : 576, 
            "byteOffset" : 72, 
            "target" : 34962
        }, 
        {
            "buffer" : 0, 
            "byteLength" : 576, 
            "byteOffset" : 648, 
            "target" : 34962
        }
    ], 
    "buffers" : [
        {
            "byteLength" : 1224, 
            "uri" : "DEFLECTOR-DADAD.bin"
        }
    ], 
    "cameras" : [
        {
            "extensions" : {
                "S8S_v3d_camera_data" : {
                    "controls" : "ORBIT", 
                    "enablePan" : true, 
                    "moveSpeed" : 1, 
                    "orbitMaxDistance" : 10000, 
                    "orbitMaxPolarAngle" : 3.141592653589793, 
                    "orbitMinDistance" : 0, 
                    "orbitMinPolarAngle" : 0, 
                    "orbitTarget" : [
                        -2.7029101848602295, 
                        5.039391040802002, 
                        0.28283339738845825
                    ], 
                    "rotateSpeed" : 1, 
                    "viewportFitInitialAspect" : 1, 
                    "viewportFitType" : "VERTICAL"
                }
            }, 
            "name" : "__DEFAULT__", 
            "perspective" : {
                "aspectRatio" : 1, 
                "yfov" : 0.7853981633974483, 
                "zfar" : 1000.0, 
                "znear" : 0.10000000149011612
            }, 
            "type" : "perspective"
        }
    ], 
    "extensions" : {
        "S8S_v3d_data" : {
            "lights" : [
                {
                    "color" : [
                        0, 
                        0, 
                        0
                    ], 
                    "name" : "Ambient_Scene", 
                    "profile" : "blender", 
                    "type" : "ambient"
                }
            ]
        }
    }, 
    "extensionsUsed" : [
        "S8S_v3d_material_data", 
        "S8S_v3d_camera_data", 
        "S8S_v3d_data", 
        "S8S_v3d_mesh_data", 
        "S8S_v3d_node_data", 
        "S8S_v3d_scene_data"
    ], 
    "materials" : [
        {
            "extensions" : {
                "S8S_v3d_material_data" : {
                    "nodeGraph" : {
                        "edges" : [
                            {
                                "fromNode" : 1, 
                                "fromOutput" : 0, 
                                "toInput" : 0, 
                                "toNode" : 0
                            }, 
                            {
                                "fromNode" : 1, 
                                "fromOutput" : 1, 
                                "toInput" : 1, 
                                "toNode" : 0
                            }
                        ], 
                        "nodes" : [
                            {
                                "inputs" : [
                                    [
                                        1, 
                                        1, 
                                        1, 
                                        1
                                    ], 
                                    1
                                ], 
                                "is_active_output" : true, 
                                "name" : "Output", 
                                "outputs" : [], 
                                "type" : "OUTPUT"
                            }, 
                            {
                                "inputs" : [
                                    [
                                        0.800000011920929, 
                                        0.800000011920929, 
                                        0.800000011920929, 
                                        1
                                    ], 
                                    [
                                        1.0, 
                                        1.0, 
                                        1.0, 
                                        1
                                    ], 
                                    0.800000011920929, 
                                    [
                                        0, 
                                        0, 
                                        0
                                    ], 
                                    [
                                        0, 
                                        0, 
                                        0, 
                                        0
                                    ], 
                                    1.0, 
                                    0.0, 
                                    1.0, 
                                    0, 
                                    1.0, 
                                    0
                                ], 
                                "invertNormal" : false, 
                                "materialName" : "Material", 
                                "name" : "Material", 
                                "outputs" : [
                                    [
                                        0, 
                                        0, 
                                        0, 
                                        0
                                    ], 
                                    0, 
                                    [
                                        0, 
                                        0, 
                                        0
                                    ], 
                                    [
                                        0, 
                                        0, 
                                        0, 
                                        0
                                    ], 
                                    [
                                        0, 
                                        0, 
                                        0, 
                                        0
                                    ], 
                                    [
                                        0, 
                                        0, 
                                        0, 
                                        0
                                    ]
                                ], 
                                "specularHardness" : 50, 
                                "specularIntensity" : 0.5, 
                                "type" : "MATERIAL_EXT", 
                                "useDiffuse" : true, 
                                "useShadeless" : false, 
                                "useSpecular" : true
                            }
                        ]
                    }
                }
            }, 
            "name" : "Material"
        }, 
        {
            "extensions" : {
                "S8S_v3d_material_data" : {
                    "nodeGraph" : {
                        "edges" : [
                            {
                                "fromNode" : 0, 
                                "fromOutput" : 0, 
                                "toInput" : 0, 
                                "toNode" : 1
                            }
                        ], 
                        "nodes" : [
                            {
                                "inputs" : [
                                    [
                                        0.05087608844041824, 
                                        0.05087608844041824, 
                                        0.05087608844041824, 
                                        1.0
                                    ], 
                                    1.0
                                ], 
                                "is_active_output" : false, 
                                "name" : "Background", 
                                "outputs" : [
                                    [
                                        0, 
                                        0, 
                                        0, 
                                        0
                                    ]
                                ], 
                                "type" : "BACKGROUND"
                            }, 
                            {
                                "inputs" : [
                                    [
                                        0, 
                                        0, 
                                        0, 
                                        0
                                    ], 
                                    [
                                        0, 
                                        0, 
                                        0, 
                                        0
                                    ]
                                ], 
                                "is_active_output" : true, 
                                "name" : "World Output", 
                                "outputs" : [], 
                                "type" : "OUTPUT_WORLD"
                            }
                        ]
                    }
                }
            }, 
            "name" : "Verge3D_Environment_World"
        }
    ], 
    "meshes" : [
        {
            "extensions" : {
                "S8S_v3d_mesh_data" : {
                    "colorLayers" : {}, 
                    "uvLayers" : {}
                }
            }, 
            "name" : "Cube", 
            "primitives" : [
                {
                    "attributes" : {
                        "NORMAL" : 2, 
                        "POSITION" : 1
                    }, 
                    "indices" : 0, 
                    "material" : 0, 
                    "mode" : 4
                }
            ]
        }
    ], 
    "nodes" : [
        {
            "extensions" : {
                "S8S_v3d_node_data" : {
                    "frustumCulling" : true, 
                    "hidden" : false, 
                    "renderOrder" : 0
                }
            }, 
            "mesh" : 0, 
            "name" : "Cube", 
            "rotation" : [
                0.0, 
                0.7071067094802856, 
                -0.0, 
                0.7071068286895752
            ], 
            "scale" : [
                1.276857614517212, 
                0.9199402332305908, 
                1.2673654556274414
            ], 
            "translation" : [
                -1.9125699996948242, 
                6.8001298904418945, 
                -0.2973969876766205
            ]
        }, 
        {
            "camera" : 0, 
            "name" : "__DEFAULT_CAMERA__", 
            "rotation" : [
                4.214685134229512e-08, 
                0.7071068286895752, 
                0.7071068286895752, 
                -4.214685134229512e-08
            ], 
            "scale" : [
                1.0, 
                0.9999999403953552, 
                0.9999999403953552
            ], 
            "translation" : [
                -2.7029101848602295, 
                20.028194427490234, 
                0.28283339738845825
            ]
        }
    ], 
    "scene" : 0, 
    "scenes" : [
        {
            "extensions" : {
                "S8S_v3d_scene_data" : {
                    "light" : 0, 
                    "worldMaterial" : 1
                }
            }, 
            "extras" : {
                "animFrameRate" : 24
            }, 
            "name" : "Scene", 
            "nodes" : [
                0, 
                1
            ]
        }
    ]
}
