{
    "accessors" : [
        {
            "bufferView" : 0, 
            "componentType" : 5121, 
            "count" : 234, 
            "max" : [
                183
            ], 
            "min" : [
                0
            ], 
            "type" : "SCALAR"
        }, 
        {
            "bufferView" : 1, 
            "componentType" : 5126, 
            "count" : 184, 
            "max" : [
                1.1709909439086914, 
                2.3728654384613037, 
                2.57077956199646
            ], 
            "min" : [
                -3.0231876373291016, 
                -2.686641216278076, 
                -1.4625205993652344
            ], 
            "type" : "VEC3"
        }, 
        {
            "bufferView" : 2, 
            "componentType" : 5126, 
            "count" : 184, 
            "max" : [
                0.991093099117279, 
                0.934817373752594, 
                0.9714916944503784
            ], 
            "min" : [
                -0.9704172611236572, 
                -0.9970657825469971, 
                -0.976324200630188
            ], 
            "type" : "VEC3"
        }
    ], 
    "asset" : {
        "generator" : "Soft8Soft Verge3D for Blender add-on", 
        "version" : "2.0"
    }, 
    "bufferViews" : [
        {
            "buffer" : 0, 
            "byteLength" : 234, 
            "byteOffset" : 0, 
            "target" : 34963
        }, 
        {
            "buffer" : 0, 
            "byteLength" : 2208, 
            "byteOffset" : 236, 
            "target" : 34962
        }, 
        {
            "buffer" : 0, 
            "byteLength" : 2208, 
            "byteOffset" : 2444, 
            "target" : 34962
        }
    ], 
    "buffers" : [
        {
            "byteLength" : 4652, 
            "uri" : "Deflector-Final.bin"
        }
    ], 
    "cameras" : [
        {
            "extensions" : {
                "S8S_v3d_camera_data" : {
                    "controls" : "ORBIT", 
                    "enablePan" : true, 
                    "moveSpeed" : 1, 
                    "orbitMaxDistance" : 10000, 
                    "orbitMaxPolarAngle" : 3.141592653589793, 
                    "orbitMinDistance" : 0, 
                    "orbitMinPolarAngle" : 0, 
                    "orbitTarget" : [
                        -2.998444080352783, 
                        4.910789966583252, 
                        -1.2464474439620972
                    ], 
                    "rotateSpeed" : 1, 
                    "viewportFitInitialAspect" : 1, 
                    "viewportFitType" : "VERTICAL"
                }
            }, 
            "name" : "__DEFAULT__", 
            "perspective" : {
                "aspectRatio" : 1, 
                "yfov" : 0.7853981633974483, 
                "zfar" : 1000.0, 
                "znear" : 0.10000000149011612
            }, 
            "type" : "perspective"
        }
    ], 
    "extensions" : {
        "S8S_v3d_data" : {
            "lights" : [
                {
                    "color" : [
                        0, 
                        0, 
                        0
                    ], 
                    "name" : "Ambient_Scene", 
                    "profile" : "blender", 
                    "type" : "ambient"
                }
            ]
        }
    }, 
    "extensionsUsed" : [
        "S8S_v3d_material_data", 
        "S8S_v3d_camera_data", 
        "S8S_v3d_data", 
        "S8S_v3d_mesh_data", 
        "S8S_v3d_node_data", 
        "S8S_v3d_scene_data"
    ], 
    "materials" : [
        {
            "extensions" : {
                "S8S_v3d_material_data" : {
                    "nodeGraph" : {
                        "edges" : [
                            {
                                "fromNode" : 0, 
                                "fromOutput" : 0, 
                                "toInput" : 0, 
                                "toNode" : 1
                            }
                        ], 
                        "nodes" : [
                            {
                                "inputs" : [
                                    [
                                        0.05087608844041824, 
                                        0.05087608844041824, 
                                        0.05087608844041824, 
                                        1.0
                                    ], 
                                    1.0
                                ], 
                                "is_active_output" : false, 
                                "name" : "Background", 
                                "outputs" : [
                                    [
                                        0, 
                                        0, 
                                        0, 
                                        0
                                    ]
                                ], 
                                "type" : "BACKGROUND"
                            }, 
                            {
                                "inputs" : [
                                    [
                                        0, 
                                        0, 
                                        0, 
                                        0
                                    ], 
                                    [
                                        0, 
                                        0, 
                                        0, 
                                        0
                                    ]
                                ], 
                                "is_active_output" : true, 
                                "name" : "World Output", 
                                "outputs" : [], 
                                "type" : "OUTPUT_WORLD"
                            }
                        ]
                    }
                }
            }, 
            "name" : "Verge3D_Environment_World"
        }, 
        {
            "emissiveFactor" : [
                0.0, 
                0.0, 
                0.0
            ], 
            "extensions" : {
                "S8S_v3d_material_data" : {
                    "nodeGraph" : {
                        "edges" : [
                            {
                                "fromNode" : 1, 
                                "fromOutput" : 0, 
                                "toInput" : 0, 
                                "toNode" : 0
                            }
                        ], 
                        "nodes" : [
                            {
                                "inputs" : [
                                    [
                                        0, 
                                        0, 
                                        0, 
                                        0
                                    ], 
                                    [
                                        0, 
                                        0, 
                                        0, 
                                        0
                                    ], 
                                    0.0
                                ], 
                                "is_active_output" : true, 
                                "name" : "Material Output", 
                                "outputs" : [], 
                                "type" : "OUTPUT_MATERIAL"
                            }, 
                            {
                                "inputs" : [
                                    [
                                        0.800000011920929, 
                                        0.800000011920929, 
                                        0.800000011920929, 
                                        1.0
                                    ], 
                                    0.0, 
                                    [
                                        0.0, 
                                        0.0, 
                                        0.0
                                    ]
                                ], 
                                "is_active_output" : false, 
                                "name" : "Diffuse BSDF", 
                                "outputs" : [
                                    [
                                        0, 
                                        0, 
                                        0, 
                                        0
                                    ]
                                ], 
                                "type" : "BSDF_DIFFUSE"
                            }
                        ]
                    }, 
                    "useCastShadows" : false, 
                    "useShadows" : false
                }
            }, 
            "name" : "v3d_default_material"
        }
    ], 
    "meshes" : [
        {
            "extensions" : {
                "S8S_v3d_mesh_data" : {
                    "colorLayers" : {}, 
                    "uvLayers" : {}
                }
            }, 
            "name" : "Icosphere", 
            "primitives" : [
                {
                    "attributes" : {
                        "NORMAL" : 2, 
                        "POSITION" : 1
                    }, 
                    "indices" : 0, 
                    "material" : 1, 
                    "mode" : 4
                }
            ]
        }
    ], 
    "nodes" : [
        {
            "extensions" : {
                "S8S_v3d_node_data" : {
                    "frustumCulling" : true, 
                    "hidden" : false, 
                    "renderOrder" : 0
                }
            }, 
            "mesh" : 0, 
            "name" : "Icosphere", 
            "rotation" : [
                -0.976517915725708, 
                0.17907139658927917, 
                -0.03909822180867195, 
                0.11321434378623962
            ], 
            "scale" : [
                1.3441959619522095, 
                1.4229094982147217, 
                1.394396185874939
            ], 
            "translation" : [
                -1.9125699996948242, 
                6.462479114532471, 
                -0.2973969876766205
            ]
        }, 
        {
            "camera" : 0, 
            "name" : "__DEFAULT_CAMERA__", 
            "rotation" : [
                8.429370268459024e-08, 
                0.0, 
                0.0, 
                1.0
            ], 
            "scale" : [
                1.0, 
                0.9999997615814209, 
                0.9999997615814209
            ], 
            "translation" : [
                -2.998443841934204, 
                4.9107890129089355, 
                6.150367736816406
            ]
        }
    ], 
    "scene" : 0, 
    "scenes" : [
        {
            "extensions" : {
                "S8S_v3d_scene_data" : {
                    "light" : 0, 
                    "physicallyCorrectLights" : true, 
                    "worldMaterial" : 0
                }
            }, 
            "extras" : {
                "animFrameRate" : 24
            }, 
            "name" : "Scene", 
            "nodes" : [
                0, 
                1
            ]
        }
    ]
}
