{
    "accessors" : [
        {
            "bufferView" : 0, 
            "componentType" : 5121, 
            "count" : 180, 
            "max" : [
                119
            ], 
            "min" : [
                0
            ], 
            "type" : "SCALAR"
        }, 
        {
            "bufferView" : 1, 
            "componentType" : 5126, 
            "count" : 120, 
            "max" : [
                56.354576110839844, 
                1.0647519826889038, 
                1.1581284999847412
            ], 
            "min" : [
                -56.274559020996094, 
                -1.2652744054794312, 
                -1.0944585800170898
            ], 
            "type" : "VEC3"
        }, 
        {
            "bufferView" : 2, 
            "componentType" : 5126, 
            "count" : 120, 
            "max" : [
                0.9999722242355347, 
                1.0, 
                1.0
            ], 
            "min" : [
                -0.9999722242355347, 
                -1.0, 
                -1.0
            ], 
            "type" : "VEC3"
        }
    ], 
    "asset" : {
        "generator" : "Soft8Soft Verge3D for Blender add-on", 
        "version" : "2.0"
    }, 
    "bufferViews" : [
        {
            "buffer" : 0, 
            "byteLength" : 180, 
            "byteOffset" : 0, 
            "target" : 34963
        }, 
        {
            "buffer" : 0, 
            "byteLength" : 1440, 
            "byteOffset" : 180, 
            "target" : 34962
        }, 
        {
            "buffer" : 0, 
            "byteLength" : 1440, 
            "byteOffset" : 1620, 
            "target" : 34962
        }
    ], 
    "buffers" : [
        {
            "byteLength" : 3060, 
            "uri" : "Switch-final.bin"
        }
    ], 
    "cameras" : [
        {
            "extensions" : {
                "S8S_v3d_camera_data" : {
                    "controls" : "ORBIT", 
                    "enablePan" : true, 
                    "moveSpeed" : 1, 
                    "orbitMaxDistance" : 10000, 
                    "orbitMaxPolarAngle" : 3.141592653589793, 
                    "orbitMinDistance" : 0, 
                    "orbitMinPolarAngle" : 0, 
                    "orbitTarget" : [
                        -1.4222967624664307, 
                        4.231628894805908, 
                        0.10786262899637222
                    ], 
                    "rotateSpeed" : 1, 
                    "viewportFitInitialAspect" : 1, 
                    "viewportFitType" : "VERTICAL"
                }
            }, 
            "name" : "__DEFAULT__", 
            "perspective" : {
                "aspectRatio" : 1, 
                "yfov" : 0.7853981633974483, 
                "zfar" : 1000.0, 
                "znear" : 0.10000000149011612
            }, 
            "type" : "perspective"
        }
    ], 
    "extensions" : {
        "S8S_v3d_data" : {
            "lights" : [
                {
                    "color" : [
                        0, 
                        0, 
                        0
                    ], 
                    "name" : "Ambient_Scene", 
                    "profile" : "blender", 
                    "type" : "ambient"
                }
            ]
        }
    }, 
    "extensionsUsed" : [
        "S8S_v3d_material_data", 
        "S8S_v3d_camera_data", 
        "S8S_v3d_data", 
        "S8S_v3d_mesh_data", 
        "S8S_v3d_node_data", 
        "S8S_v3d_scene_data"
    ], 
    "materials" : [
        {
            "extensions" : {
                "S8S_v3d_material_data" : {
                    "nodeGraph" : {
                        "edges" : [
                            {
                                "fromNode" : 0, 
                                "fromOutput" : 0, 
                                "toInput" : 0, 
                                "toNode" : 1
                            }
                        ], 
                        "nodes" : [
                            {
                                "inputs" : [
                                    [
                                        0.05087608844041824, 
                                        0.05087608844041824, 
                                        0.05087608844041824, 
                                        1.0
                                    ], 
                                    1.0
                                ], 
                                "is_active_output" : false, 
                                "name" : "Background", 
                                "outputs" : [
                                    [
                                        0, 
                                        0, 
                                        0, 
                                        0
                                    ]
                                ], 
                                "type" : "BACKGROUND"
                            }, 
                            {
                                "inputs" : [
                                    [
                                        0, 
                                        0, 
                                        0, 
                                        0
                                    ], 
                                    [
                                        0, 
                                        0, 
                                        0, 
                                        0
                                    ]
                                ], 
                                "is_active_output" : true, 
                                "name" : "World Output", 
                                "outputs" : [], 
                                "type" : "OUTPUT_WORLD"
                            }
                        ]
                    }
                }
            }, 
            "name" : "Verge3D_Environment_World"
        }, 
        {
            "emissiveFactor" : [
                0.0, 
                0.0, 
                0.0
            ], 
            "extensions" : {
                "S8S_v3d_material_data" : {
                    "nodeGraph" : {
                        "edges" : [
                            {
                                "fromNode" : 1, 
                                "fromOutput" : 0, 
                                "toInput" : 0, 
                                "toNode" : 0
                            }
                        ], 
                        "nodes" : [
                            {
                                "inputs" : [
                                    [
                                        0, 
                                        0, 
                                        0, 
                                        0
                                    ], 
                                    [
                                        0, 
                                        0, 
                                        0, 
                                        0
                                    ], 
                                    0.0
                                ], 
                                "is_active_output" : true, 
                                "name" : "Material Output", 
                                "outputs" : [], 
                                "type" : "OUTPUT_MATERIAL"
                            }, 
                            {
                                "inputs" : [
                                    [
                                        0.800000011920929, 
                                        0.800000011920929, 
                                        0.800000011920929, 
                                        1.0
                                    ], 
                                    0.0, 
                                    [
                                        0.0, 
                                        0.0, 
                                        0.0
                                    ]
                                ], 
                                "is_active_output" : false, 
                                "name" : "Diffuse BSDF", 
                                "outputs" : [
                                    [
                                        0, 
                                        0, 
                                        0, 
                                        0
                                    ]
                                ], 
                                "type" : "BSDF_DIFFUSE"
                            }
                        ]
                    }, 
                    "useCastShadows" : false, 
                    "useShadows" : false
                }
            }, 
            "name" : "v3d_default_material"
        }
    ], 
    "meshes" : [
        {
            "extensions" : {
                "S8S_v3d_mesh_data" : {
                    "colorLayers" : {}, 
                    "uvLayers" : {}
                }
            }, 
            "name" : "Cube.006", 
            "primitives" : [
                {
                    "attributes" : {
                        "NORMAL" : 2, 
                        "POSITION" : 1
                    }, 
                    "indices" : 0, 
                    "material" : 1, 
                    "mode" : 4
                }
            ]
        }
    ], 
    "nodes" : [
        {
            "extensions" : {
                "S8S_v3d_node_data" : {
                    "frustumCulling" : true, 
                    "hidden" : false, 
                    "renderOrder" : 0
                }
            }, 
            "mesh" : 0, 
            "name" : "Cube.004", 
            "rotation" : [
                0.0, 
                -0.383018434047699, 
                -0.0, 
                0.9237407445907593
            ], 
            "scale" : [
                0.059248074889183044, 
                3.2746708393096924, 
                2.962397813796997
            ], 
            "translation" : [
                -1.9125699996948242, 
                7.304169654846191, 
                -0.2973969876766205
            ]
        }, 
        {
            "camera" : 0, 
            "name" : "__DEFAULT_CAMERA__", 
            "rotation" : [
                0.026089513674378395, 
                0.19467857480049133, 
                -0.005179967265576124, 
                0.9805064797401428
            ], 
            "scale" : [
                0.9999998807907104, 
                0.9999998807907104, 
                0.9999998211860657
            ], 
            "translation" : [
                2.8906068801879883, 
                3.630432367324829, 
                10.540756225585938
            ]
        }
    ], 
    "scene" : 0, 
    "scenes" : [
        {
            "extensions" : {
                "S8S_v3d_scene_data" : {
                    "light" : 0, 
                    "physicallyCorrectLights" : true, 
                    "worldMaterial" : 0
                }
            }, 
            "extras" : {
                "animFrameRate" : 24
            }, 
            "name" : "Scene", 
            "nodes" : [
                0, 
                1
            ]
        }
    ]
}
